<?xml version="1.0"?>
<svg version="1.1" xmlns="http://www.w3.org/2000/svg" width="400" height="200" style=""><path fill="#" d="M25.103515625,105.564453125l7.9296875,0l0,10.36328125q-1.927734375,0.62890625-3.6298828125,0.8818359375t-3.4794921875,0.2529296875q-4.525390625,0-6.9111328125-2.6591796875t-2.3857421875-7.6357421875q0-4.83984375,2.7685546875-7.546875t7.6767578125-2.70703125q3.076171875,0,5.93359375,1.23046875l-1.408203125,3.390625q-2.1875-1.09375-4.552734375-1.09375q-2.748046875,0-4.40234375,1.845703125t-1.654296875,4.962890625q0,3.25390625,1.3330078125,4.9697265625t3.8759765625,1.7158203125q1.326171875,0,2.693359375-0.2734375l0-4.169921875l-3.787109375,0l0-3.52734375z M51.95193359375,116.7890625l-1.44921875-4.7578125l-7.287109375,0l-1.44921875,4.7578125l-4.56640625,0l7.0546875-20.0703125l5.181640625,0l7.08203125,20.0703125l-4.56640625,0z M49.49099609375,108.4765625q-2.009765625-6.466796875-2.2626953125-7.314453125t-0.3623046875-1.33984375q-0.451171875,1.75-2.583984375,8.654296875l5.208984375,0z M77.2280859375,96.80078125l0,12.93359375q0,2.21484375-0.9912109375,3.8828125t-2.8642578125,2.556640625t-4.4296875,0.888671875q-3.85546875,0-5.98828125-1.9755859375t-2.1328125-5.4072265625l0-12.87890625l4.224609375,0l0,12.236328125q0,2.310546875,0.9296875,3.390625t3.076171875,1.080078125q2.078125,0,3.0146484375-1.0869140625t0.9365234375-3.4111328125l0-12.208984375l4.224609375,0z M88.28548828125,105.673828125l1.3671875,0q2.009765625,0,2.966796875-0.669921875t0.95703125-2.10546875q0-1.421875-0.9775390625-2.0234375t-3.0283203125-0.6015625l-1.28515625,0l0,5.400390625z M88.28548828125,109.119140625l0,7.669921875l-4.23828125,0l0-19.98828125l5.82421875,0q4.07421875,0,6.029296875,1.4833984375t1.955078125,4.5048828125q0,1.763671875-0.970703125,3.1376953125t-2.748046875,2.1533203125q4.51171875,6.740234375,5.87890625,8.708984375l-4.703125,0l-4.771484375-7.669921875l-2.255859375,0z M116.6925,116.7890625l-1.44921875-4.7578125l-7.287109375,0l-1.44921875,4.7578125l-4.56640625,0l7.0546875-20.0703125l5.181640625,0l7.08203125,20.0703125l-4.56640625,0z M114.2315625,108.4765625q-2.009765625-6.466796875-2.2626953125-7.314453125t-0.3623046875-1.33984375q-0.451171875,1.75-2.583984375,8.654296875l5.208984375,0z M137.10146484375,96.80078125l4.279296875,0l-6.794921875,19.98828125l-4.62109375,0l-6.78125-19.98828125l4.279296875,0l3.759765625,11.89453125q0.314453125,1.052734375,0.6494140625,2.4541015625t0.4169921875,1.9482421875q0.150390625-1.2578125,1.025390625-4.40234375z M194.4119140625,111.23828125q0,2.70703125-1.9482421875,4.265625t-5.4208984375,1.55859375q-3.19921875,0-5.66015625-1.203125l0-3.9375q2.0234375,0.90234375,3.4248046875,1.271484375t2.5634765625,0.369140625q1.39453125,0,2.1396484375-0.533203125t0.7451171875-1.5859375q0-0.587890625-0.328125-1.0458984375t-0.9638671875-0.8818359375t-2.5908203125-1.353515625q-1.83203125-0.861328125-2.748046875-1.654296875t-1.462890625-1.845703125t-0.546875-2.4609375q0-2.65234375,1.7978515625-4.169921875t4.9697265625-1.517578125q1.55859375,0,2.9736328125,0.369140625t2.9599609375,1.0390625l-1.3671875,3.294921875q-1.599609375-0.65625-2.6455078125-0.916015625t-2.0576171875-0.259765625q-1.203125,0-1.845703125,0.560546875t-0.642578125,1.462890625q0,0.560546875,0.259765625,0.9775390625t0.8271484375,0.806640625t2.6865234375,1.4013671875q2.802734375,1.33984375,3.841796875,2.6865234375t1.0390625,3.3017578125z M212.19587890625,116.7890625l-1.44921875-4.7578125l-7.287109375,0l-1.44921875,4.7578125l-4.56640625,0l7.0546875-20.0703125l5.181640625,0l7.08203125,20.0703125l-4.56640625,0z M209.73494140625,108.4765625q-2.009765625-6.466796875-2.2626953125-7.314453125t-0.3623046875-1.33984375q-0.451171875,1.75-2.583984375,8.654296875l5.208984375,0z M221.2025,116.7890625l0-19.98828125l4.23828125,0l0,16.48828125l8.107421875,0l0,3.5l-12.345703125,0z M255.21498046875,96.80078125l0,12.93359375q0,2.21484375-0.9912109375,3.8828125t-2.8642578125,2.556640625t-4.4296875,0.888671875q-3.85546875,0-5.98828125-1.9755859375t-2.1328125-5.4072265625l0-12.87890625l4.224609375,0l0,12.236328125q0,2.310546875,0.9296875,3.390625t3.076171875,1.080078125q2.078125,0,3.0146484375-1.0869140625t0.9365234375-3.4111328125l0-12.208984375l4.224609375,0z M279.7665234375,116.7890625l-5.38671875,0l-8.6953125-15.12109375l-0.123046875,0q0.259765625,4.005859375,0.259765625,5.71484375l0,9.40625l-3.787109375,0l0-19.98828125l5.345703125,0l8.681640625,14.970703125l0.095703125,0q-0.205078125-3.896484375-0.205078125-5.509765625l0-9.4609375l3.814453125,0l0,19.98828125z M302.80048828125,116.7890625l-4.8125,0l-5.236328125-8.421875l-1.791015625,1.28515625l0,7.13671875l-4.23828125,0l0-19.98828125l4.23828125,0l0,9.146484375l1.66796875-2.3515625l5.4140625-6.794921875l4.703125,0l-6.97265625,8.845703125z M323.619609375,116.7890625l-4.224609375,0l0-8.626953125l-7.916015625,0l0,8.626953125l-4.23828125,0l0-19.98828125l4.23828125,0l0,7.833984375l7.916015625,0l0-7.833984375l4.224609375,0l0,19.98828125z M342.10083984375,116.7890625l-11.51171875,0l0-19.98828125l11.51171875,0l0,3.47265625l-7.2734375,0l0,4.388671875l6.767578125,0l0,3.47265625l-6.767578125,0l0,5.154296875l7.2734375,0l0,3.5z"/><path fill="#" d=""/></svg>
